<svg width="15" height="16" fill="none" xmlns="http://www.w3.org/2000/svg"><g id="1345865"><g id="Group" fill="#E4DFD3"><path id="Vector" d="M6.984 1.52a5.32 5.32 0 0 0-2.07.535 5.255 5.255 0 0 0-1.101.704 6.6 6.6 0 0 0-.58.584 5.506 5.506 0 0 0-1.195 2.755A4.12 4.12 0 0 0 2 6.764c0 .384.017.591.079.93A5.59 5.59 0 0 0 3.092 10c.603.798 1.465 1.401 2.489 1.743a5.2 5.2 0 0 0 1.152.244c.175.018.727.02.895.004a5.223 5.223 0 0 0 1.936-.554 4.868 4.868 0 0 0 1.936-1.7 5.511 5.511 0 0 0 .873-2.381 5.268 5.268 0 0 0-.438-2.771c-.42-.937-1.016-1.653-1.814-2.177a5.82 5.82 0 0 0-1.675-.737 5.157 5.157 0 0 0-1.462-.151Zm.492.874c.454.032.906.136 1.33.308.962.39 1.651.983 2.134 1.834.498.879.689 1.818.567 2.791-.118.947-.608 1.941-1.27 2.581-.332.32-.67.554-1.108.77a4.293 4.293 0 0 1-1.628.449 6.052 6.052 0 0 1-.746-.013 4.376 4.376 0 0 1-1.393-.394 4.177 4.177 0 0 1-1.61-1.292 4.556 4.556 0 0 1-.862-2.137c-.1-.82.033-1.63.39-2.398.454-.975 1.147-1.665 2.112-2.103a4.36 4.36 0 0 1 1.575-.399c.092-.006.401-.005.509.003Z"/><path id="Vector_2" d="M7.009 3.591a2.764 2.764 0 0 0-1.087.31c-.835.437-1.436 1.28-1.616 2.267-.04.226-.05.338-.05.625 0 .206.004.294.015.386.096.777.412 1.444.933 1.965.452.454.99.73 1.604.823.148.023.466.03.617.017a2.823 2.823 0 0 0 1.656-.742 3.202 3.202 0 0 0 .849-1.28l.014-.042-.046-.016a205.56 205.56 0 0 0-.882-.307c-.011-.002-.022.017-.054.096-.115.285-.27.52-.48.733-.476.476-1.103.663-1.712.509-.563-.143-1.05-.57-1.308-1.147a2.332 2.332 0 0 1-.209-1c0-.4.08-.743.255-1.089.168-.331.415-.614.709-.808a1.75 1.75 0 0 1 1.731-.126 2.124 2.124 0 0 1 .837.768l.04.067.025-.015c.013-.008.202-.119.419-.244.216-.125.4-.232.407-.238.013-.008.008-.02-.05-.112-.443-.716-1.135-1.206-1.913-1.355a2.498 2.498 0 0 0-.479-.046l-.225.001Z"/></g></g></svg>